<svg xmlns="http://www.w3.org/2000/svg" data-name="Layer 1" viewBox="0 0 512 512" id="free-kick"><path d="M510.36 255a125.12 125.12 0 0 0-67.44-110.77 6.42 6.42 0 0 0-.85-.48 4.47 4.47 0 0 0-.46-.19 124.77 124.77 0 0 0-113.29.4c-.14.06-.28.11-.41.18a6.36 6.36 0 0 0-.81.47 124.94 124.94 0 0 0-9.19 215.75 7.87 7.87 0 0 0 1.35.85 124.83 124.83 0 0 0 122.23 5.63l.45-.19a6.71 6.71 0 0 0 .87-.49 125.13 125.13 0 0 0 67.55-110.82V255Zm-125-109.84a109.2 109.2 0 0 1 43.46 9l-21.2 44.6h-44.57l-21.76-44.34a109.34 109.34 0 0 1 44.08-9.24Zm22.56 68.57 22.86 41.43-22.86 41.44H362.8L340 255.18l22.85-41.43ZM328 161.37l21.92 44.68-23 41.64h-51.29A110.1 110.1 0 0 1 328 161.37Zm-52.37 101.32H327l22.57 40.93-28.8 40.51a110 110 0 0 1-45.14-81.44Zm109.74 102.49a109.29 109.29 0 0 1-51.92-13l28.8-40.52h45.36l21.12 44.65a109.44 109.44 0 0 1-43.36 8.87Zm56.7-15.77-21.29-45 23-41.69h51.32a110.1 110.1 0 0 1-53.03 86.69Zm1.71-101.72-23-41.68 21.38-45a110.08 110.08 0 0 1 52.93 86.67Zm-24.43 158.62a7.49 7.49 0 0 0-8.59 6.21c-3.38 21-11.16 35.2-23.14 42.35-12.53 7.47-30 7.38-52-.29a7.5 7.5 0 0 0-4.94 14.17q19.08 6.64 34.87 6.65c11.25 0 21.2-2.55 29.74-7.65 16-9.52 26.15-27.3 30.26-52.84a7.5 7.5 0 0 0-6.2-8.6Zm-127.88-17.07a368.63 368.63 0 0 1-49.13-58.33l2.31-1.24a7.5 7.5 0 0 0-7.12-13.21l-3.38 1.82q-4-6.48-7.8-13.15l3.79-2a7.5 7.5 0 0 0-7.14-13.25l-3.81 2.12-9.19-17.12a7.5 7.5 0 0 0-7.06-13.11l-12.19-22.61-5-18.82c-3.63-13.57-18.55-21.63-32.26-21.87L119.07 44a7.5 7.5 0 1 0-14.64 3.26L149 247.47l-20.18 7.89a34.29 34.29 0 0 1-31-20.1c-.08-.18-.17-.36-.26-.53L14.06 84.61A7.5 7.5 0 1 0 .94 91.89l58.63 105.47-19.47 27.3-.1.14c-21.81 31-30.13 72 .48 93.59l182.93 129.08c8.24 5.82 19.52 7.91 30.09 7.91a81.25 81.25 0 0 0 13.77-1.17c8.55-1.48 24.1-5.69 32.2-17.21 0-.05.06-.1.1-.15v-.11c14.67-21.2-1.58-39.94-7.71-47-.08-.18-.23-.35-.39-.5Zm-120.25-165 3.52 13.2-11.61 4.56-6.26-28.11c6.49 1.11 12.91 4.96 14.35 10.32ZM67.93 319.4l-18.81-13.27c-21.93-15.47-13.31-44.75-2.12-64.36 14.88 18.89 22.64 38.49 23.06 58.38a72.61 72.61 0 0 1-2.13 19.25Zm220.38 107.26c-7.84-.66-36.09-12.39-71-36.16-38.14-26-63.84-52.55-68.74-71.09a7.5 7.5 0 1 0-14.5 3.83c11.33 42.86 97 99.1 138.12 114.39a57.58 57.58 0 0 1-7.5 1.8c-12.81 2.22-25.93.53-32.65-4.21L80.88 328.54a85 85 0 0 0 4.18-27.72c-.18-17.38-5.56-43.64-29.39-72.15l12-16.79 16.62 29.89A49.25 49.25 0 0 0 129 270.36h1.49a7.69 7.69 0 0 0 2.51-.51l47.27-18.48 9.42 17.49-15.28 8.23a7.5 7.5 0 1 0 7.11 13.21l15.29-8.3 9.18 17-10.68 5.75a7.5 7.5 0 1 0 7.12 13.2l10.72-5.77q3.75 6.66 7.77 13.16l-11.1 6a7.5 7.5 0 1 0 7.11 13.21l12.15-6.54a383.3 383.3 0 0 0 51.73 61.74c11.19 13.02 11.47 20.25 7.5 26.91Z"></path></svg>