<svg xmlns="http://www.w3.org/2000/svg" width="32" height="32" id="heart-balloon"><path style="line-height:normal;-inkscape-font-specification:Sans;text-indent:0;text-align:start;text-decoration-line:none;text-transform:none;block-progression:tb;marker:none" d="M-733.76 1095.554c-1.176-.68-2.484-.913-3.715-.63-1.214.28-2.343 1.09-3.127 2.417.795.566 1.219 1.375 1.494 2.162.908-.172 1.932-.22 2.906.342 1.046.604 1.883 1.49 2.236 2.627.352 1.132.21 2.448-.5 3.68-.804 1.392-2.387 1.98-4.05 2.389.067.172.14.343.207.516l-7.766 13.45a.5.5 0 1 0 .866.5l7.766-13.45c.468-.073.941-.128 1.411-.195.071-.176.146-.377.243-.546.783-1.355 1.941-2.215 3.217-2.509 1.274-.292 2.595-.017 3.768.66.269.156.49.348.696.546.831-.437 1.517-1.002 1.953-1.758.794-1.375.95-2.793.576-3.998-.373-1.205-1.244-2.198-2.417-2.875-1.186-.685-2.563-.536-3.724-.238-.32-1.146-.86-2.409-2.04-3.09zm6.065 5.306a.501.501 0 0 1 .054.03.501.501 0 0 1 .054.032.501.501 0 0 1 .054.03.5.5 0 0 1 .147.121c.548.534.898 1.242.871 2.055-.027.812-.43 1.692-1.228 2.502a.5.5 0 1 1-.714-.7c.669-.68.933-1.319.95-1.834.017-.514-.201-.94-.58-1.309a.504.504 0 0 1 .392-.928zm-13.662-2.836c-.873-.504-1.809-.67-2.688-.47-.22.05-.423.118-.63.215-.42.192-.813.48-1.158.882-.17.198-.315.42-.46.673-.074.128-.14.255-.192.394-.003.01-.013.018-.016.027-.046.131-.067.274-.095.415-.033.159-.045.301-.056.472-.032.481.007.986.117 1.547.074.382.172.767.293 1.18.12.403.253.817.402 1.242.383 1.096.842 2.261 1.28 3.409a.5.5 0 0 0-.164.158l-6.547 11.34a.5.5 0 1 0 .866.5l6.547-11.34a.5.5 0 0 0 .082-.205c1.22-.197 2.47-.364 3.62-.58.442-.085.866-.177 1.276-.274 1.64-.39 2.952-.926 3.547-1.957.587-1.016.664-2.016.397-2.875-.266-.854-.888-1.559-1.766-2.066-.797-.46-1.733-.383-2.608-.17a.518.518 0 0 1-.596-.344c-.206-.705-.532-1.402-1.076-1.885a2.272 2.272 0 0 0-.375-.288zm4.584 4.56a.5.5 0 0 1 .054.03.5.5 0 0 1 .305.285c.362.76.226 1.763-.496 2.672a.5.5 0 1 1-.761-.62c.553-.696.553-1.23.364-1.63a.5.5 0 0 1 .534-.738zm7.47 5.25c-.992-.573-2.05-.763-3.049-.533-.945.217-1.798.831-2.45 1.869-.036.056-.086.087-.12.146-.252.436-.39.941-.426 1.487-.012.182.001.354.009.547.028.778.204 1.62.477 2.548.135.459.28.93.447 1.413.444 1.286.975 2.653 1.483 3.995a.5.5 0 0 0-.222.197l-4.516 7.821a.5.5 0 1 0 .866.5l4.516-7.821a.5.5 0 0 0 .055-.22.5.5 0 0 0 .016-.028c.901-.147 1.81-.28 2.7-.426a42.697 42.697 0 0 0 3.002-.575c1.174-.281 2.194-.618 2.966-1.138.146-.096.273-.201.397-.313.14-.126.284-.257.401-.382.117-.124.192-.27.277-.417.67-1.161.763-2.257.46-3.235a3.797 3.797 0 0 0-.746-1.332 4.835 4.835 0 0 0-1.267-1.056 2.582 2.582 0 0 0-.34-.161 3.286 3.286 0 0 0-1.135-.222c-.508-.011-1.018.075-1.524.202-.037.01-.075.01-.112.01h-.07a.509.509 0 0 1-.324-.187c-.008 0-.02-.011-.027-.016a.484.484 0 0 1-.061-.144 6.911 6.911 0 0 0-.226-.671c-.008-.021-.03-.038-.039-.058a4.987 4.987 0 0 0-.3-.606c-.02-.033-.028-.07-.05-.101a3.291 3.291 0 0 0-.35-.455 3.133 3.133 0 0 0-.545-.495c-.061-.036-.11-.1-.173-.136zm5.472 5.396a.5.5 0 0 1 .054.031.5.5 0 0 1 .278.27c.361.76.225 1.762-.497 2.672a.5.5 0 1 1-.76-.62c.552-.697.553-1.231.363-1.63a.5.5 0 0 1 .562-.723z" color="#000" font-family="Sans" font-weight="400" overflow="visible" transform="rotate(-30 -2403.87 -841.402)"></path></svg>