<svg xmlns="http://www.w3.org/2000/svg" width="128" height="128" data-name="Layer 1" id="length"><path d="M61.821 26h-1.015a4.206 4.206 0 0 1-.689-3.94A9.501 9.501 0 0 0 62 16.39V9.61A9.656 9.656 0 0 0 52.32 0h-.64A9.656 9.656 0 0 0 42 9.61v6.78a9.501 9.501 0 0 0 1.882 5.67 4.206 4.206 0 0 1-.688 3.94h-1.015C36.015 26 31 31.315 31 37.849v39.397A4.781 4.781 0 0 0 35.797 82H36v39a7 7 0 0 0 14 0V82h4v39a7 7 0 0 0 14 0V82h.203A4.781 4.781 0 0 0 73 77.246V37.85C73 31.315 67.985 26 61.821 26zm-13.937-.772A9.684 9.684 0 0 0 51.68 26h.64a9.684 9.684 0 0 0 3.796-.772 7.52 7.52 0 0 0 .39 1.321 1.99 1.99 0 0 0-.284.324L52 33.064l-4.222-6.191a1.995 1.995 0 0 0-.285-.324 7.522 7.522 0 0 0 .39-1.32zM46 9.61A5.652 5.652 0 0 1 51.68 4h.64A5.652 5.652 0 0 1 58 9.61v6.78A5.652 5.652 0 0 1 52.32 22h-.64A5.652 5.652 0 0 1 46 16.39zM46 121a3 3 0 0 1-6 0V82h6zm18 0a3 3 0 0 1-6 0V82h6zm5-43.754a.777.777 0 0 1-.797.754H63v-6a2 2 0 0 0-4 0v6H45v-6a2 2 0 0 0-4 0v6h-5.203a.777.777 0 0 1-.797-.754V37.85C35 33.52 38.22 30 42.179 30h2.89l4.553 6.677a3.278 3.278 0 0 0 2.13 1.33 3.12 3.12 0 0 0 2.626-1.33L58.93 30h2.89C65.78 30 69 33.52 69 37.849zM87 25h4a2 2 0 0 0 0-4h-4a2 2 0 0 0 0 4zm0 17h4a2 2 0 0 0 0-4h-4a2 2 0 0 0 0 4zm0 8h4a2 2 0 0 0 0-4h-4a2 2 0 0 0 0 4zm0 17h4a2 2 0 0 0 0-4h-4a2 2 0 0 0 0 4zm0 9h4a2 2 0 0 0 0-4h-4a2 2 0 0 0 0 4zm0 17h4a2 2 0 0 0 0-4h-4a2 2 0 0 0 0 4zm0 8h4a2 2 0 0 0 0-4h-4a2 2 0 0 0 0 4zm0-68h8a2 2 0 0 0 0-4h-8a2 2 0 0 0 0 4zm8 22h-8a2 2 0 0 0 0 4h8a2 2 0 0 0 0-4zm0 25h-8a2 2 0 0 0 0 4h8a2 2 0 0 0 0-4zm0 26h-8a2 2 0 0 0 0 4h8a2 2 0 0 0 0-4zm-4 8h-4a2 2 0 0 0 0 4h4a2 2 0 0 0 0-4zM80.79 1.105a2 2 0 0 0-3.58 0l-3 6A2 2 0 0 0 77 9.731V126a2 2 0 0 0 4 0V9.726a1.996 1.996 0 0 0 2.79-2.62z"></path></svg>